<?xml-stylesheet type="text/css" href="css/master.css"?>
<svg xmlns="http://www.w3.org/2000/svg" viewBox="0 0 100 125">

<path id="filter_img" fill="#f5f5f5" d="M87.2,22.8c1.9,0,3.5,1.6,3.5,3.5v0c0,1.9-1.6,3.5-3.5,3.5h-6.5c-1.2,0-2.3,0.6-2.9,1.6c-1.7,2.9-4.9,4.8-8.5,4.8  c-3.6,0-6.7-1.9-8.5-4.8c-0.6-1-1.8-1.6-2.9-1.6H12.4c-1.9,0-3.5-1.6-3.5-3.5v0c0-1.9,1.6-3.5,3.5-3.5H58c1.2,0,2.3-0.6,2.9-1.6  c1.7-2.9,4.9-4.8,8.5-4.8c3.6,0,6.7,1.9,8.5,4.8c0.6,1,1.8,1.6,2.9,1.6H87.2z M69.4,63.2c-3.6,0-6.7,1.9-8.5,4.8  c-0.6,1-1.8,1.6-2.9,1.6H12.4c-1.9,0-3.5,1.6-3.5,3.5v0c0,1.9,1.6,3.5,3.5,3.5H58c1.2,0,2.3,0.6,2.9,1.6c1.7,2.9,4.9,4.8,8.5,4.8  c3.6,0,6.7-1.9,8.5-4.8c0.6-1,1.8-1.6,2.9-1.6h6.5c1.9,0,3.5-1.6,3.5-3.5v0c0-1.9-1.6-3.5-3.5-3.5h-6.5c-1.2,0-2.3-0.6-2.9-1.6  C76.1,65.1,73,63.2,69.4,63.2z M31.2,39.8c-3.6,0-6.7,1.9-8.5,4.8c-0.6,1-1.8,1.6-2.9,1.6h-7.4c-1.9,0-3.5,1.6-3.5,3.5v0  c0,1.9,1.6,3.5,3.5,3.5h7.4c1.2,0,2.3,0.6,2.9,1.6c1.7,2.9,4.9,4.8,8.5,4.8c3.6,0,6.7-1.9,8.5-4.8c0.6-1,1.8-1.6,2.9-1.6h44.7  c1.9,0,3.5-1.6,3.5-3.5v0c0-1.9-1.6-3.5-3.5-3.5H42.6c-1.2,0-2.3-0.6-2.9-1.6C37.9,41.7,34.8,39.8,31.2,39.8z"/>
</svg>